# Vectary OBJ Export units=mm
mtllib cube.mtl
o 000_Box_1
g Box_1
usemtl Box material 1_a2a59087-7a62-4a99-a84e-d854ebd986cc
v 50.000 -0.000 50.000
v 0.000 0.000 0.000
v 50.000 0.000 0.000
v 0.000 -0.000 50.000
v -50.000 0.000 0.000
v -50.000 -0.000 50.000
v 0.000 0.000 -50.000
v 50.000 0.000 -50.000
v -50.000 0.000 -50.000
v -50.000 50.000 0.000
v -50.000 50.000 -50.000
v -50.000 50.000 50.000
v -50.000 100.000 0.000
v -50.000 100.000 -50.000
v -50.000 100.000 50.000
v 0.000 50.000 50.000
v 50.000 50.000 50.000
v 0.000 100.000 50.000
v 50.000 100.000 50.000
v 0.000 50.000 -50.000
v 50.000 50.000 -50.000
v 0.000 100.000 -50.000
v 50.000 100.000 -50.000
v 50.000 50.000 0.000
v 50.000 100.000 0.000
v 0.000 100.000 0.000
vn 0.00000 -1.00000 -0.00000
vn 0.00000 -1.00000 -0.00000
vn 0.00000 -1.00000 -0.00000
vn 0.00000 -1.00000 -0.00000
vn 0.00000 -1.00000 -0.00000
vn 0.00000 -1.00000 -0.00000
vn 0.00000 -1.00000 -0.00000
vn 0.00000 -1.00000 -0.00000
vn 0.00000 -1.00000 -0.00000
vn 0.00000 -1.00000 -0.00000
vn 0.00000 -1.00000 -0.00000
vn 0.00000 -1.00000 -0.00000
vn 0.00000 -1.00000 -0.00000
vn 0.00000 -1.00000 -0.00000
vn 0.00000 -1.00000 -0.00000
vn 0.00000 -1.00000 -0.00000
vn -1.00000 0.00000 0.00000
vn -1.00000 0.00000 0.00000
vn -1.00000 0.00000 0.00000
vn -1.00000 0.00000 0.00000
vn -1.00000 0.00000 0.00000
vn -1.00000 0.00000 0.00000
vn -1.00000 0.00000 0.00000
vn -1.00000 0.00000 0.00000
vn -1.00000 0.00000 0.00000
vn -1.00000 0.00000 0.00000
vn -1.00000 0.00000 0.00000
vn -1.00000 0.00000 0.00000
vn -1.00000 0.00000 0.00000
vn -1.00000 0.00000 0.00000
vn -1.00000 0.00000 0.00000
vn -1.00000 0.00000 0.00000
vn 0.00000 -0.00000 1.00000
vn 0.00000 -0.00000 1.00000
vn 0.00000 -0.00000 1.00000
vn 0.00000 -0.00000 1.00000
vn 0.00000 -0.00000 1.00000
vn 0.00000 -0.00000 1.00000
vn 0.00000 -0.00000 1.00000
vn 0.00000 -0.00000 1.00000
vn 0.00000 -0.00000 1.00000
vn 0.00000 -0.00000 1.00000
vn 0.00000 -0.00000 1.00000
vn 0.00000 -0.00000 1.00000
vn 0.00000 -0.00000 1.00000
vn 0.00000 -0.00000 1.00000
vn 0.00000 -0.00000 1.00000
vn 0.00000 -0.00000 1.00000
vn 0.00000 0.00000 -1.00000
vn 0.00000 0.00000 -1.00000
vn 0.00000 0.00000 -1.00000
vn 0.00000 0.00000 -1.00000
vn 0.00000 0.00000 -1.00000
vn 0.00000 0.00000 -1.00000
vn 0.00000 0.00000 -1.00000
vn 0.00000 0.00000 -1.00000
vn 0.00000 0.00000 -1.00000
vn 0.00000 0.00000 -1.00000
vn 0.00000 0.00000 -1.00000
vn 0.00000 0.00000 -1.00000
vn 0.00000 0.00000 -1.00000
vn 0.00000 0.00000 -1.00000
vn 0.00000 0.00000 -1.00000
vn 0.00000 0.00000 -1.00000
vn 1.00000 0.00000 0.00000
vn 1.00000 0.00000 0.00000
vn 1.00000 0.00000 0.00000
vn 1.00000 0.00000 0.00000
vn 1.00000 0.00000 0.00000
vn 1.00000 0.00000 0.00000
vn 1.00000 0.00000 0.00000
vn 1.00000 0.00000 0.00000
vn 1.00000 0.00000 0.00000
vn 1.00000 0.00000 0.00000
vn 1.00000 0.00000 0.00000
vn 1.00000 0.00000 0.00000
vn 1.00000 0.00000 0.00000
vn 1.00000 0.00000 0.00000
vn 1.00000 0.00000 0.00000
vn 1.00000 0.00000 0.00000
vn 0.00000 1.00000 0.00000
vn 0.00000 1.00000 0.00000
vn 0.00000 1.00000 0.00000
vn 0.00000 1.00000 0.00000
vn 0.00000 1.00000 0.00000
vn 0.00000 1.00000 0.00000
vn 0.00000 1.00000 0.00000
vn 0.00000 1.00000 0.00000
vn 0.00000 1.00000 0.00000
vn 0.00000 1.00000 0.00000
vn 0.00000 1.00000 0.00000
vn 0.00000 1.00000 0.00000
vn 0.00000 1.00000 0.00000
vn 0.00000 1.00000 0.00000
vn 0.00000 1.00000 0.00000
vn 0.00000 1.00000 0.00000
f 3//3 1//1 4//4 2//2 
f 2//7 4//5 6//8 5//6 
f 8//11 3//9 2//12 7//10 
f 7//15 2//13 5//16 9//14 
f 11//19 9//17 5//20 10//18 
f 10//23 5//21 6//24 12//22 
f 14//27 11//25 10//28 13//26 
f 13//31 10//29 12//32 15//30 
f 12//35 6//33 4//36 16//34 
f 16//39 4//37 1//40 17//38 
f 15//43 12//41 16//44 18//42 
f 18//47 16//45 17//48 19//46 
f 21//51 8//49 7//52 20//50 
f 20//55 7//53 9//56 11//54 
f 23//59 21//57 20//60 22//58 
f 22//63 20//61 11//64 14//62 
f 17//67 1//65 3//68 24//66 
f 24//71 3//69 8//72 21//70 
f 19//75 17//73 24//76 25//74 
f 25//79 24//77 21//80 23//78 
f 13//83 15//81 18//84 26//82 
f 26//87 18//85 19//88 25//86 
f 14//91 13//89 26//92 22//90 
f 22//95 26//93 25//96 23//94 
o 001_Box
g Box
usemtl Box material_962976f7-65c4-4171-bf9d-6da840b1d14b
v 50.000 -0.000 50.000
v 0.000 0.000 0.000
v 50.000 0.000 0.000
v 0.000 -0.000 50.000
v -50.000 0.000 0.000
v -50.000 -0.000 50.000
v 0.000 0.000 -50.000
v 50.000 0.000 -50.000
v -50.000 0.000 -50.000
v -50.000 50.000 0.000
v -50.000 50.000 -50.000
v -50.000 50.000 50.000
v -50.000 100.000 0.000
v -50.000 100.000 -50.000
v -50.000 100.000 50.000
v 0.000 50.000 50.000
v 50.000 50.000 50.000
v 0.000 100.000 50.000
v 50.000 100.000 50.000
v 0.000 50.000 -50.000
v 50.000 50.000 -50.000
v 0.000 100.000 -50.000
v 50.000 100.000 -50.000
v 50.000 50.000 0.000
v 50.000 100.000 0.000
v 0.000 100.000 0.000
vn 0.00000 -1.00000 -0.00000
vn 0.00000 -1.00000 -0.00000
vn 0.00000 -1.00000 -0.00000
vn 0.00000 -1.00000 -0.00000
vn 0.00000 -1.00000 -0.00000
vn 0.00000 -1.00000 -0.00000
vn 0.00000 -1.00000 -0.00000
vn 0.00000 -1.00000 -0.00000
vn 0.00000 -1.00000 -0.00000
vn 0.00000 -1.00000 -0.00000
vn 0.00000 -1.00000 -0.00000
vn 0.00000 -1.00000 -0.00000
vn 0.00000 -1.00000 -0.00000
vn 0.00000 -1.00000 -0.00000
vn 0.00000 -1.00000 -0.00000
vn 0.00000 -1.00000 -0.00000
vn -1.00000 0.00000 0.00000
vn -1.00000 0.00000 0.00000
vn -1.00000 0.00000 0.00000
vn -1.00000 0.00000 0.00000
vn -1.00000 0.00000 0.00000
vn -1.00000 0.00000 0.00000
vn -1.00000 0.00000 0.00000
vn -1.00000 0.00000 0.00000
vn -1.00000 0.00000 0.00000
vn -1.00000 0.00000 0.00000
vn -1.00000 0.00000 0.00000
vn -1.00000 0.00000 0.00000
vn -1.00000 0.00000 0.00000
vn -1.00000 0.00000 0.00000
vn -1.00000 0.00000 0.00000
vn -1.00000 0.00000 0.00000
vn 0.00000 -0.00000 1.00000
vn 0.00000 -0.00000 1.00000
vn 0.00000 -0.00000 1.00000
vn 0.00000 -0.00000 1.00000
vn 0.00000 -0.00000 1.00000
vn 0.00000 -0.00000 1.00000
vn 0.00000 -0.00000 1.00000
vn 0.00000 -0.00000 1.00000
vn 0.00000 -0.00000 1.00000
vn 0.00000 -0.00000 1.00000
vn 0.00000 -0.00000 1.00000
vn 0.00000 -0.00000 1.00000
vn 0.00000 -0.00000 1.00000
vn 0.00000 -0.00000 1.00000
vn 0.00000 -0.00000 1.00000
vn 0.00000 -0.00000 1.00000
vn 0.00000 0.00000 -1.00000
vn 0.00000 0.00000 -1.00000
vn 0.00000 0.00000 -1.00000
vn 0.00000 0.00000 -1.00000
vn 0.00000 0.00000 -1.00000
vn 0.00000 0.00000 -1.00000
vn 0.00000 0.00000 -1.00000
vn 0.00000 0.00000 -1.00000
vn 0.00000 0.00000 -1.00000
vn 0.00000 0.00000 -1.00000
vn 0.00000 0.00000 -1.00000
vn 0.00000 0.00000 -1.00000
vn 0.00000 0.00000 -1.00000
vn 0.00000 0.00000 -1.00000
vn 0.00000 0.00000 -1.00000
vn 0.00000 0.00000 -1.00000
vn 1.00000 0.00000 0.00000
vn 1.00000 0.00000 0.00000
vn 1.00000 0.00000 0.00000
vn 1.00000 0.00000 0.00000
vn 1.00000 0.00000 0.00000
vn 1.00000 0.00000 0.00000
vn 1.00000 0.00000 0.00000
vn 1.00000 0.00000 0.00000
vn 1.00000 0.00000 0.00000
vn 1.00000 0.00000 0.00000
vn 1.00000 0.00000 0.00000
vn 1.00000 0.00000 0.00000
vn 1.00000 0.00000 0.00000
vn 1.00000 0.00000 0.00000
vn 1.00000 0.00000 0.00000
vn 1.00000 0.00000 0.00000
vn 0.00000 1.00000 0.00000
vn 0.00000 1.00000 0.00000
vn 0.00000 1.00000 0.00000
vn 0.00000 1.00000 0.00000
vn 0.00000 1.00000 0.00000
vn 0.00000 1.00000 0.00000
vn 0.00000 1.00000 0.00000
vn 0.00000 1.00000 0.00000
vn 0.00000 1.00000 0.00000
vn 0.00000 1.00000 0.00000
vn 0.00000 1.00000 0.00000
vn 0.00000 1.00000 0.00000
vn 0.00000 1.00000 0.00000
vn 0.00000 1.00000 0.00000
vn 0.00000 1.00000 0.00000
vn 0.00000 1.00000 0.00000
f 29//99 27//97 30//100 28//98 
f 28//103 30//101 32//104 31//102 
f 34//107 29//105 28//108 33//106 
f 33//111 28//109 31//112 35//110 
f 37//115 35//113 31//116 36//114 
f 36//119 31//117 32//120 38//118 
f 40//123 37//121 36//124 39//122 
f 39//127 36//125 38//128 41//126 
f 38//131 32//129 30//132 42//130 
f 42//135 30//133 27//136 43//134 
f 41//139 38//137 42//140 44//138 
f 44//143 42//141 43//144 45//142 
f 47//147 34//145 33//148 46//146 
f 46//151 33//149 35//152 37//150 
f 49//155 47//153 46//156 48//154 
f 48//159 46//157 37//160 40//158 
f 43//163 27//161 29//164 50//162 
f 50//167 29//165 34//168 47//166 
f 45//171 43//169 50//172 51//170 
f 51//175 50//173 47//176 49//174 
f 39//179 41//177 44//180 52//178 
f 52//183 44//181 45//184 51//182 
f 40//187 39//185 52//188 48//186 
f 48//191 52//189 51//192 49//190 
